<?xml version="1.0" standalone="no"?>
<!DOCTYPE svg PUBLIC "-//W3C//DTD SVG 20010904//EN"
 "http://www.w3.org/TR/2001/REC-SVG-20010904/DTD/svg10.dtd">
<svg version="1.0" xmlns="http://www.w3.org/2000/svg"
 width="801.000000pt" height="801.000000pt" viewBox="0 0 801.000000 801.000000"
 preserveAspectRatio="xMidYMid meet">

<g transform="translate(0.000000,801.000000) scale(0.100000,-0.100000)"
fill="#000000" stroke="none">
<path d="M2103 7723 l-1813 -3 -2 -3690 c-1 -2030 -2 -3699 -2 -3711 -1 -20 3
-21 204 -20 113 1 374 -3 580 -9 225 -5 379 -5 384 0 6 6 1264 7 3137 3 l3129
-6 2 609 c2 335 2 2009 0 3721 l-2 3111 -1903 -1 c-1046 -1 -2718 -3 -3714 -4z
m5601 -375 c4 -200 6 -1865 4 -3701 l-3 -3338 -730 2 c-401 2 -2066 2 -3700 2
l-2970 -2 2 3667 c2 2017 3 3679 3 3694 l0 27 143 3 c78 2 1740 4 3693 6
l3552 3 6 -363z m-3421 -7045 c-7 -2 -21 -2 -30 0 -10 3 -4 5 12 5 17 0 24 -2
18 -5z m605 0 c-103 -2 -274 -2 -380 0 -106 1 -22 2 187 2 209 0 296 -1 193
-2z"/>
<path d="M767 7533 c-27 -2 -63 -13 -80 -24 -18 -10 -40 -19 -49 -19 -9 0 -27
-13 -40 -29 -13 -16 -33 -34 -45 -40 -12 -6 -27 -27 -32 -47 -6 -20 -16 -44
-24 -53 -18 -20 -31 -157 -17 -166 5 -3 10 -23 10 -44 0 -26 7 -44 21 -57 11
-10 27 -33 34 -51 8 -19 25 -37 39 -43 14 -5 35 -21 48 -35 14 -16 32 -25 51
-25 16 0 41 -7 57 -16 22 -13 34 -15 57 -6 16 5 42 8 56 5 16 -3 39 3 60 16
19 12 44 21 55 21 12 0 28 12 37 28 9 15 30 35 46 44 16 10 29 25 29 34 0 9 9
31 20 48 34 57 25 266 -13 287 -8 5 -21 24 -27 43 -7 22 -21 38 -39 46 -16 6
-39 22 -52 36 -12 13 -34 24 -48 24 -14 1 -37 7 -51 15 -14 8 -32 14 -40 13
-8 -1 -37 -3 -63 -5z m97 -28 c11 -8 32 -15 47 -15 17 0 39 -11 57 -30 17 -16
37 -30 46 -30 8 0 18 -10 21 -22 4 -13 18 -34 30 -48 28 -30 38 -81 36 -179
-1 -57 -6 -80 -21 -99 -11 -13 -20 -31 -20 -38 0 -22 -87 -102 -119 -109 -16
-3 -35 -12 -41 -20 -7 -8 -31 -14 -60 -13 -27 0 -53 -3 -59 -6 -6 -4 -24 0
-40 9 -17 8 -41 15 -54 15 -13 0 -36 13 -52 30 -16 17 -35 30 -42 30 -7 0 -20
15 -29 33 -9 17 -24 41 -34 52 -37 41 -43 209 -9 256 10 15 19 36 19 48 0 13
11 26 30 36 17 9 36 27 42 40 6 14 17 25 25 25 7 0 30 8 51 17 20 10 60 20 87
24 28 3 55 6 60 7 6 1 19 -5 29 -13z"/>
<path d="M755 7311 c-58 -15 -82 -34 -72 -57 1 -4 56 -6 122 -6 128 1 143 8
95 43 -29 21 -102 31 -145 20z"/>
<path d="M535 7090 c3 -5 8 -10 11 -10 2 0 4 5 4 10 0 6 -5 10 -11 10 -5 0 -7
-4 -4 -10z"/>
<path d="M613 7023 c-3 -7 -2 -16 1 -22 10 -15 373 -12 379 3 8 21 -6 33 -40
33 -25 0 -33 -5 -33 -19 0 -17 -8 -18 -115 -16 -123 3 -158 19 -65 29 44 5 38
6 -34 5 -59 0 -90 -5 -93 -13z m40 -10 c-7 -2 -19 -2 -25 0 -7 3 -2 5 12 5 14
0 19 -2 13 -5z"/>
<path d="M848 7033 c12 -2 32 -2 45 0 12 2 2 4 -23 4 -25 0 -35 -2 -22 -4z"/>
<path d="M4118 7205 c-2 -3 -24 -7 -49 -10 -48 -6 -87 -27 -96 -52 -4 -9 0
-30 7 -47 7 -17 12 -45 11 -63 -1 -26 8 -40 53 -81 50 -45 56 -54 66 -113 6
-35 18 -91 26 -123 13 -48 13 -68 3 -109 l-12 -50 -18 24 c-10 13 -17 29 -15
35 7 18 -22 74 -39 74 -9 0 -15 9 -15 23 0 36 -33 61 -73 54 -26 -4 -36 -1
-45 14 -15 24 -55 25 -78 2 -10 -10 -29 -16 -45 -15 -35 4 -66 -12 -74 -38 -4
-13 -15 -20 -30 -20 -27 0 -75 -52 -75 -81 0 -11 -13 -32 -30 -46 -16 -13 -30
-32 -30 -41 0 -11 8 -4 20 16 11 17 27 32 35 32 8 0 15 9 15 20 0 51 48 102
75 80 8 -7 16 0 28 25 19 39 58 55 83 34 13 -11 19 -8 38 15 26 33 60 30 70
-7 4 -17 8 -19 18 -9 29 29 95 -1 85 -40 -4 -14 2 -22 19 -28 26 -10 45 -46
37 -68 -3 -7 -1 -18 5 -25 17 -22 21 -62 8 -92 -12 -25 -15 -27 -21 -12 -4 9
-15 17 -25 17 -25 0 -35 18 -13 22 13 3 7 10 -23 24 -31 16 -44 18 -58 10 -13
-9 -20 -7 -32 8 -15 21 -19 10 -5 -13 6 -10 3 -19 -11 -30 -20 -17 -20 -17 1
-41 l21 -25 6 22 c5 19 11 21 37 16 23 -5 28 -3 22 7 -5 8 -20 10 -46 6 -47
-8 -49 -2 -9 19 66 34 81 3 67 -134 -12 -120 -48 -156 -157 -156 -119 0 -150
37 -150 179 0 82 1 88 34 131 29 37 36 42 46 30 7 -8 21 -15 31 -15 10 0 30
-5 44 -12 20 -9 28 -9 38 2 10 10 9 12 -4 7 -28 -9 -43 7 -28 31 7 12 10 24 6
28 -8 9 -38 -16 -32 -26 9 -15 -23 -18 -43 -4 -17 12 -19 19 -11 47 5 17 14
34 19 35 13 5 13 22 0 22 -6 0 -18 -17 -26 -37 -49 -114 -54 -123 -79 -129
-19 -5 -24 -11 -20 -25 5 -14 2 -17 -9 -13 -25 10 -46 -15 -46 -53 0 -26 8
-43 34 -69 18 -18 39 -46 45 -63 7 -16 23 -39 35 -50 l23 -22 -135 -132 c-133
-131 -168 -174 -190 -232 -67 -185 -84 -236 -106 -319 -40 -149 -37 -176 36
-325 34 -69 61 -133 60 -141 -7 -59 -21 -138 -27 -151 -4 -11 9 -29 44 -58
l51 -43 34 21 c18 12 36 21 40 21 3 0 6 -30 6 -68 0 -168 42 -413 115 -677 24
-88 49 -185 56 -215 6 -30 18 -62 25 -71 14 -15 64 -214 64 -252 0 -11 -8 -21
-19 -24 -12 -3 -23 -23 -35 -65 -19 -68 -74 -181 -116 -240 -25 -34 -28 -44
-18 -62 53 -100 216 -52 275 82 16 36 34 59 58 73 34 20 45 42 26 53 -5 3 -12
27 -16 53 -4 26 -13 60 -21 75 -8 15 -15 44 -15 65 -1 23 -3 29 -6 16 -6 -30
-46 -40 -76 -20 -19 12 -29 38 -50 128 -15 62 -26 113 -24 115 9 10 139 29
143 22 4 -5 6 -57 6 -116 1 -97 2 -101 9 -47 4 33 5 103 3 155 -8 168 -5 240
25 540 43 420 54 510 63 510 4 0 8 -8 8 -17 0 -10 11 -52 24 -93 14 -41 32
-111 42 -155 9 -44 38 -154 65 -244 27 -91 62 -228 79 -305 17 -78 35 -150 40
-161 43 -91 65 -311 48 -479 -6 -63 -5 -70 17 -92 13 -13 35 -24 48 -24 16 0
44 -18 78 -51 99 -94 108 -99 152 -99 47 0 93 26 113 62 21 37 16 55 -20 77
-59 37 -125 118 -168 206 -22 47 -46 85 -53 85 -17 0 -25 43 -35 209 -7 101
-7 148 1 157 6 7 8 21 5 31 -16 53 -69 591 -86 870 -6 94 -17 193 -25 220 -8
26 -15 73 -15 103 0 75 -13 114 -54 165 -20 23 -41 55 -48 71 -6 16 -24 43
-40 59 -28 31 -28 32 -18 108 6 52 20 97 41 139 62 121 64 168 13 323 -16 50
-16 51 19 190 20 77 44 165 52 195 32 107 -2 302 -79 459 -29 61 -31 69 -19
101 6 19 12 45 12 57 1 29 -36 115 -56 131 -17 12 -55 16 -65 7z m85 -66 c26
-52 27 -60 16 -103 -9 -37 -20 -53 -59 -81 -26 -19 -51 -35 -54 -35 -10 0
-106 92 -106 101 0 5 14 24 31 44 23 25 39 35 61 35 35 0 34 -22 -2 -30 -36
-8 -34 -24 4 -38 20 -7 37 -22 41 -35 5 -16 8 -18 12 -8 4 9 -6 25 -25 40
l-30 26 41 19 c41 19 67 42 67 58 0 17 -18 7 -23 -13 -4 -13 -12 -20 -24 -17
-14 2 -19 14 -21 51 -3 46 -2 48 20 45 17 -2 31 -19 51 -59z m-89 14 c-2 -57
-24 -57 -38 -1 -6 26 -4 28 34 37 3 0 5 -16 4 -36z m-50 -5 c4 -21 2 -34 -6
-39 -17 -11 -26 0 -34 39 -6 27 -4 32 14 32 14 0 21 -9 26 -32z m-46 -25 c11
-36 9 -53 -7 -53 -13 0 -32 51 -26 71 9 29 20 23 33 -18z m42 -637 c0 -2 -7
-9 -15 -16 -12 -10 -15 -10 -15 4 0 9 7 16 15 16 8 0 15 -2 15 -4z m-383 -31
c9 -25 -2 -27 -22 -5 -17 18 -17 20 -1 20 9 0 19 -7 23 -15z m389 -11 c-3 -9
-6 -18 -6 -20 0 -3 -4 -2 -10 1 -5 3 -10 -3 -10 -14 0 -10 4 -21 10 -23 5 -1
1 -14 -10 -28 -10 -14 -21 -22 -25 -19 -3 4 2 15 12 25 13 12 14 19 5 22 -17
5 -15 32 6 53 21 22 36 24 28 3z m-406 -19 c0 -8 6 -15 14 -15 9 0 12 -8 8
-27 l-5 -27 -24 28 c-26 31 -30 56 -8 56 8 0 15 -7 15 -15z m290 -204 c0 -15
-51 -31 -100 -31 -57 0 -80 7 -80 25 0 10 14 12 58 8 31 -3 68 0 82 5 25 10
40 7 40 -7z m-299 -726 l59 -60 -44 -142 c-24 -78 -47 -155 -51 -172 -8 -36
-5 -35 -50 -17 -33 14 -35 18 -35 63 0 26 -5 75 -10 108 -8 50 -6 80 15 188
14 70 25 130 25 134 0 4 7 -4 16 -17 9 -14 43 -52 75 -85z m544 -30 c-79 -62
-176 -84 -367 -85 -88 0 -108 3 -108 14 0 8 4 17 8 20 5 3 82 14 173 26 173
22 218 32 259 55 22 12 27 12 40 -1 12 -12 12 -16 -5 -29z m57 -88 c-23 -15
-92 10 -92 33 0 5 14 17 32 28 l32 21 21 -37 c18 -31 19 -38 7 -45z m-85 2
c16 -16 36 -22 74 -23 74 -1 90 -26 99 -149 4 -51 12 -102 18 -113 11 -22 27
-166 42 -384 6 -85 20 -247 31 -358 18 -173 19 -206 8 -218 -20 -19 -159 -45
-164 -30 -2 6 -11 40 -20 76 -9 36 -33 124 -55 195 -56 191 -81 287 -76 292 3
3 11 -10 19 -28 8 -19 33 -73 55 -120 23 -48 48 -104 57 -124 8 -21 18 -36 20
-33 7 6 -10 46 -86 205 -88 184 -133 305 -143 390 -4 30 0 35 54 68 61 37 87
61 76 72 -3 4 -21 -7 -39 -24 -17 -16 -52 -41 -77 -56 -47 -26 -152 -127 -134
-127 6 0 28 18 49 41 20 22 41 37 45 32 4 -4 -1 -78 -11 -163 -10 -85 -30
-281 -44 -435 -34 -371 -28 -342 -73 -355 -20 -5 -63 -10 -94 -10 -46 0 -59 4
-68 19 -16 30 -96 355 -114 461 -38 224 -42 510 -7 510 4 0 13 -11 19 -25 22
-47 37 -30 41 44 1 25 4 48 7 53 3 4 -4 8 -15 8 -30 0 -34 15 -17 73 14 49 19
55 55 66 45 13 128 90 137 125 5 20 14 24 66 30 121 12 115 15 122 -61 10
-101 18 -135 27 -126 4 4 2 50 -5 101 -10 68 -10 95 -2 97 6 2 25 8 41 13 45
15 57 14 82 -9z m-347 -26 c0 -34 -80 -113 -127 -128 -27 -8 -28 -3 -7 61 9
27 17 55 20 62 4 13 114 18 114 5z m-243 -275 l73 -23 -1 -45 c0 -44 0 -44
-16 -22 -18 26 -67 30 -80 7 -8 -13 -132 -69 -139 -62 -1 1 4 27 12 57 8 30
14 62 14 72 0 18 25 37 50 38 8 0 48 -10 87 -22z m-20 -130 c0 -7 3 -23 7 -34
10 -33 -23 -41 -46 -12 -10 13 -18 29 -18 36 0 22 16 12 33 -20 l17 -33 -5 38
c-3 20 -2 37 3 37 5 0 9 -6 9 -12z m-52 -48 c22 -43 19 -47 -15 -15 -33 32
-38 45 -15 45 8 0 21 -13 30 -30z m-36 -12 c17 -17 31 -36 31 -41 0 -10 -48
23 -74 52 -33 36 7 26 43 -11z m996 -828 c4 -33 6 -63 5 -67 -2 -5 -38 -20
-82 -35 -56 -19 -80 -23 -83 -15 -9 28 -26 129 -23 133 2 2 37 10 78 19 41 9
76 18 79 20 13 14 20 0 26 -55z m-526 -137 l1 -42 -52 -10 c-134 -26 -124 -27
-131 16 -4 21 -9 53 -13 71 l-6 32 73 1 c41 0 83 4 94 8 24 10 32 -10 34 -76z
m515 15 c9 -44 16 -114 17 -193 l2 -80 -32 -9 c-48 -14 -81 5 -81 46 0 18 -9
75 -19 126 -13 66 -15 95 -7 98 113 41 114 41 120 12z m29 -307 c4 -15 -2 -22
-24 -30 -25 -9 -29 -14 -23 -36 5 -22 3 -25 -19 -25 -31 0 -34 5 -43 58 l-6
41 48 4 c27 2 52 4 55 5 4 1 9 -7 12 -17z m-572 -61 c25 0 29 -4 29 -28 0 -54
-55 -74 -65 -24 -4 15 -11 36 -17 46 -8 16 -7 18 7 12 9 -3 30 -6 46 -6z"/>
<path d="M5163 7118 c-20 -25 -35 -87 -25 -105 7 -11 6 -22 -1 -33 -13 -22 33
-109 74 -139 l29 -22 -1 -152 c-1 -84 -4 -179 -8 -212 l-6 -60 -27 52 c-19 38
-28 74 -33 139 -7 78 -11 92 -35 116 -15 15 -30 38 -34 51 -3 14 -14 34 -24
47 -22 27 -114 50 -158 38 -30 -7 -94 -68 -94 -87 0 -5 -11 -12 -24 -15 -59
-15 -126 -103 -126 -165 0 -16 -5 -33 -10 -36 -16 -10 -51 -84 -49 -103 1 -9
-6 -34 -15 -55 -15 -34 -15 -40 -1 -67 14 -27 14 -30 -10 -56 -30 -32 -32 -58
-7 -80 16 -13 17 -21 8 -55 -9 -34 -8 -42 9 -59 11 -11 36 -23 55 -26 l35 -7
-27 22 c-19 15 -28 32 -28 50 0 35 19 91 31 91 5 0 4 -12 -1 -26 -6 -14 -10
-43 -10 -65 0 -37 2 -39 20 -29 17 9 20 8 20 -9 0 -11 2 -25 5 -33 3 -7 -8
-22 -25 -33 -36 -24 -56 -80 -99 -275 -37 -164 -81 -403 -81 -434 0 -28 36
-118 101 -255 l49 -104 -20 -59 c-11 -32 -20 -66 -20 -76 0 -30 25 -67 45 -67
24 0 24 -1 2 -91 -25 -107 -42 -311 -27 -329 9 -11 35 -15 96 -15 l83 0 6 -37
c3 -21 23 -130 45 -243 51 -274 90 -525 90 -581 0 -67 -46 -149 -140 -252 -44
-48 -80 -92 -80 -97 0 -6 7 -26 14 -45 15 -34 16 -35 72 -35 51 0 66 6 160 61
l104 61 0 42 c0 22 4 47 8 53 5 7 3 59 -4 115 -21 181 -40 903 -23 913 4 3 6
11 3 18 -3 8 18 19 62 30 36 10 67 17 69 15 1 -2 17 -86 34 -188 18 -102 40
-225 51 -275 94 -442 89 -410 84 -556 l-6 -137 37 -28 c20 -16 54 -43 75 -60
52 -42 120 -61 160 -44 38 16 48 28 55 69 5 31 1 38 -73 110 -68 66 -82 86
-109 156 -30 75 -33 92 -43 275 -11 200 -28 397 -36 415 -2 6 -2 -31 1 -82 l5
-91 -70 -4 -69 -3 -11 45 c-19 82 -69 394 -64 402 3 4 25 8 50 8 24 0 44 5 44
10 0 6 -7 10 -15 10 -36 0 -172 -33 -250 -61 -96 -33 -93 -33 -91 -16 0 6 -3
55 -7 107 -4 52 -11 153 -17 223 -5 70 -10 240 -11 378 0 176 -4 249 -11 247
-19 -7 -3 -553 22 -793 16 -146 32 -131 -134 -125 -80 3 -148 9 -152 13 -18
18 1 213 32 339 8 31 11 63 8 72 -4 11 0 16 13 16 41 0 83 21 83 42 0 11 9 31
20 45 11 14 20 34 20 44 0 18 -39 54 -70 64 -22 7 -19 48 15 180 33 128 59
185 85 185 11 0 37 8 58 19 47 23 114 39 220 50 45 5 89 14 97 21 8 6 18 9 24
6 15 -10 124 -202 184 -326 47 -96 227 -549 227 -569 0 -4 -10 -7 -22 -8 -13
-1 -37 -5 -55 -8 -28 -5 -34 -2 -48 26 -48 92 -169 452 -205 607 -11 46 -25
71 -34 61 -12 -14 186 -595 235 -692 15 -28 16 -38 7 -41 -7 -2 -56 -15 -108
-29 -52 -14 -102 -29 -112 -32 -13 -5 -21 11 -47 94 -43 138 -85 318 -116 496
-26 146 -44 262 -45 278 0 4 -6 7 -14 7 -12 0 -12 -8 -1 -52 8 -29 16 -69 18
-88 10 -71 59 -318 82 -417 32 -136 104 -353 116 -353 6 0 8 4 5 8 -4 7 86 42
108 42 4 0 4 -74 0 -164 -4 -93 -3 -165 2 -169 5 -3 10 58 12 137 5 211 4 210
74 221 22 4 42 15 48 25 7 13 26 21 58 25 74 10 73 9 50 57 -11 23 -52 123
-89 221 -38 98 -87 220 -109 271 -60 141 -201 402 -211 392 -2 -3 -3 28 -2 67
13 373 28 493 86 687 74 253 79 367 26 565 -28 101 -30 131 -11 175 21 50 14
186 -10 202 -7 4 -41 8 -75 8 -34 0 -68 2 -76 5 -7 3 -18 0 -24 -7z m31 -7 c3
-4 -1 -17 -9 -27 -27 -36 -15 -39 14 -4 16 19 33 32 37 27 4 -4 -1 -16 -11
-27 -10 -11 -15 -28 -12 -40 6 -23 -12 -27 -32 -7 -11 10 -13 9 -8 -5 4 -12 1
-18 -8 -18 -18 0 -20 34 -4 79 11 31 23 39 33 22z m86 -9 c0 -5 -3 -12 -7 -16
-5 -4 -13 -21 -18 -38 -9 -25 -13 -28 -22 -16 -10 11 -8 21 7 46 18 30 40 43
40 24z m48 0 c-1 -4 -11 -28 -22 -55 -24 -61 -43 -63 -36 -3 3 28 30 66 47 66
8 0 13 -3 11 -8z m19 -91 c3 -45 -1 -71 -14 -98 -10 -21 -18 -42 -19 -48 0 -5
-2 -15 -2 -21 -1 -7 -13 -15 -27 -18 -32 -8 -92 37 -124 94 -25 45 -23 53 20
76 45 23 73 14 32 -11 -35 -21 -35 -35 2 -35 14 0 32 -11 44 -27 11 -16 21
-22 21 -15 0 14 -30 47 -51 55 -20 8 8 27 41 27 20 0 29 9 44 46 10 25 21 43
23 40 3 -3 7 -32 10 -65z m-402 -351 c8 0 19 -9 24 -19 6 -10 24 -24 40 -29
45 -16 53 -42 52 -170 -1 -104 -3 -119 -26 -159 -35 -58 -66 -78 -97 -62 -33
16 -78 60 -93 89 -7 14 -20 63 -30 109 l-17 83 26 82 c22 70 29 83 53 92 21 7
31 6 41 -3 7 -7 20 -13 27 -13z m170 -159 c7 -22 -19 -91 -34 -91 -6 0 -8 9
-3 23 4 12 7 37 6 55 -1 36 21 45 31 13z m-438 -16 c0 -8 -11 -25 -24 -37 -30
-28 -31 -3 -1 29 25 27 25 27 25 8z m123 -54 c0 -9 3 -27 6 -41 l6 -25 -26 28
c-25 27 -34 66 -19 81 9 9 33 -22 33 -43z m-136 -23 c-4 -6 -16 -36 -26 -67
l-19 -56 5 48 c2 27 11 56 21 67 20 22 30 26 19 8z m501 -138 c-9 -16 -18 -30
-21 -30 -2 0 2 14 11 30 9 17 18 30 21 30 2 0 -2 -13 -11 -30z m-535 -59 c-13
-32 -30 -41 -30 -16 0 8 5 26 12 40 17 38 34 15 18 -24z m401 -34 c-12 -12
-115 -16 -126 -6 -8 9 -17 59 -10 59 3 0 17 -7 30 -16 32 -21 70 -12 92 23
l18 27 3 -38 c2 -21 -1 -43 -7 -49z m-341 -45 c0 -10 -7 -27 -15 -38 -14 -19
-14 -19 -15 3 0 28 10 53 21 53 5 0 9 -8 9 -18z m57 -644 c20 -29 31 -64 38
-117 10 -67 9 -81 -7 -118 -23 -51 -58 -188 -58 -225 0 -16 -4 -28 -10 -28 -5
0 -10 11 -10 25 0 13 -11 87 -24 163 -25 139 -25 139 -6 213 10 41 21 86 24
102 9 37 21 34 53 -15z m4 -575 c52 -28 55 -33 39 -64 -14 -26 -24 -24 -38 9
-11 26 -11 26 -8 2 2 -14 7 -39 11 -56 7 -32 6 -32 -48 -48 -75 -22 -84 -21
-90 13 -7 36 26 140 50 159 23 17 28 16 84 -15z m179 -640 c3 -3 6 -9 6 -14 1
-5 2 -13 3 -19 0 -6 18 -3 41 6 23 9 43 14 46 12 5 -5 7 -380 2 -382 -2 -1
-33 0 -69 2 l-67 4 -21 91 c-27 117 -51 254 -51 290 0 28 0 28 53 21 28 -4 54
-9 57 -11z m540 -909 c0 -6 -13 -14 -30 -17 -19 -4 -30 -13 -30 -23 0 -16 1
-16 19 0 22 20 54 18 59 -4 1 -8 -12 -23 -29 -33 -18 -10 -29 -20 -25 -24 3
-3 14 1 24 10 17 15 52 24 52 13 0 -2 3 -11 6 -20 4 -10 1 -16 -8 -16 -8 0
-23 -9 -33 -20 -10 -11 -13 -20 -8 -20 6 0 16 7 23 15 20 23 36 18 100 -32 67
-51 85 -88 55 -110 -42 -30 -108 -9 -197 64 -26 21 -56 45 -67 53 -18 14 -19
23 -14 103 5 80 8 87 27 87 12 0 28 5 36 10 16 10 40 -12 40 -36z m-408 -78
c5 -72 3 -82 -16 -98 -44 -40 -203 -138 -223 -138 -43 0 -83 13 -83 27 0 8 35
54 79 101 43 48 84 97 90 110 14 26 38 28 69 6 12 -8 22 -12 22 -8 0 12 -34
33 -53 34 -22 0 -18 19 6 34 12 8 21 5 36 -8 13 -12 21 -14 21 -7 0 7 -15 18
-32 26 l-33 14 30 1 c17 1 39 5 50 9 26 11 31 -3 37 -103z m385 -153 c28 -22
72 -51 98 -63 44 -21 53 -22 100 -5 17 6 17 4 -4 -14 -29 -26 -84 -27 -132 -3
-57 29 -139 103 -139 125 0 14 3 17 13 10 6 -6 35 -28 64 -50z m-387 20 c0
-17 -19 -32 -109 -86 -80 -48 -102 -57 -142 -57 -37 0 -51 4 -58 18 -9 17 -6
18 42 14 50 -4 56 -2 132 50 44 30 87 57 95 61 22 8 40 8 40 0z"/>
<path d="M4982 6574 c-18 -14 -32 -30 -32 -37 0 -6 9 -1 20 11 11 11 28 25 37
31 10 5 15 12 13 15 -3 3 -20 -6 -38 -20z"/>
<path d="M4830 6562 c0 -7 20 -20 64 -40 5 -3 6 1 2 7 -10 15 -66 44 -66 33z"/>
<path d="M4988 6524 c-33 -17 -36 -30 -8 -37 14 -3 20 0 20 10 0 9 8 22 18 29
23 18 4 17 -30 -2z"/>
<path d="M4820 6510 c0 -4 9 -10 20 -13 11 -3 20 -13 20 -22 0 -12 5 -15 16
-11 9 3 20 6 26 6 17 0 -34 36 -59 42 -13 4 -23 3 -23 -2z"/>
<path d="M4922 6437 c-31 -33 -29 -59 3 -51 15 4 25 2 25 -5 0 -6 -7 -11 -15
-11 -9 0 -20 -12 -26 -27 -14 -36 17 -69 56 -59 44 11 52 86 9 86 -9 0 -14 6
-11 13 2 6 10 11 16 9 24 -5 25 31 2 50 -29 23 -33 23 -59 -5z m57 -11 c9 -11
7 -15 -11 -20 -13 -3 -32 -6 -42 -6 -18 0 -18 1 -1 20 21 23 38 25 54 6z m-4
-76 c-3 -5 -12 -10 -20 -10 -8 0 -17 5 -20 10 -4 6 5 10 20 10 15 0 24 -4 20
-10z m14 -31 c-5 -10 -14 -21 -19 -24 -17 -10 -50 5 -50 23 0 13 9 17 39 17
35 1 38 -1 30 -16z"/>
<path d="M4933 3250 c14 -11 29 -20 33 -20 4 0 -1 9 -11 20 -10 11 -25 20 -33
20 -9 0 -6 -7 11 -20z"/>
<path d="M2482 6983 c-36 -14 -48 -133 -21 -204 9 -22 2 -52 -39 -170 -70
-202 -86 -283 -78 -384 8 -109 37 -201 97 -305 56 -98 70 -165 57 -261 -9 -71
3 -155 33 -225 14 -35 19 -69 19 -141 0 -89 -3 -103 -49 -226 -27 -73 -55
-163 -62 -202 -17 -88 -18 -576 -1 -617 9 -21 19 -27 49 -30 l38 -3 22 -105
c33 -157 52 -306 63 -495 l9 -170 -32 -64 c-26 -53 -45 -74 -109 -123 -48 -36
-78 -66 -78 -78 0 -45 112 -101 156 -77 52 28 224 169 224 183 0 8 -7 31 -15
51 -8 19 -15 53 -15 74 0 31 -4 39 -18 39 -18 0 -18 4 0 128 22 149 35 526 20
590 -10 42 -10 42 18 42 15 0 41 3 59 6 21 5 32 2 35 -7 31 -99 73 -287 106
-469 53 -295 51 -280 40 -280 -5 0 -12 -17 -15 -37 -4 -21 -12 -62 -19 -90
-11 -44 -11 -56 1 -72 19 -28 172 -141 213 -159 46 -19 114 -11 145 18 24 22
40 60 25 60 -4 0 -11 -12 -14 -26 -9 -35 -64 -57 -120 -49 -31 5 -69 27 -145
82 -92 68 -102 79 -98 102 23 122 30 151 37 151 15 0 23 -22 22 -61 -2 -33 4
-43 57 -91 94 -88 162 -109 215 -67 l26 20 10 -27 c6 -15 13 -24 16 -21 14 13
-29 65 -73 89 -68 38 -127 103 -156 173 -24 57 -25 72 -30 335 -4 187 -11 301
-21 355 -20 105 -21 99 19 114 24 8 37 21 42 39 4 15 8 110 7 212 0 181 -7
235 -41 343 -10 31 -12 52 -5 60 17 21 100 250 123 338 19 72 21 101 16 209
-6 133 -27 253 -55 310 -20 41 -93 99 -178 142 -61 31 -61 31 -57 70 3 25 16
55 37 83 18 24 36 56 40 71 4 15 21 43 37 62 52 59 61 114 19 125 -17 4 -17 7
-4 46 10 29 11 48 4 66 -14 38 -13 42 15 49 32 8 59 59 45 85 -5 11 -15 21
-21 23 -9 3 -9 9 0 25 6 12 11 29 11 38 0 25 -46 65 -74 65 -22 0 -24 3 -17
23 21 56 -33 97 -104 79 -38 -10 -41 -9 -63 19 -37 46 -116 38 -174 -19 -30
-27 -35 -51 -17 -69 9 -9 3 -15 -23 -26 -64 -27 -99 -97 -63 -127 11 -9 12
-16 4 -26 -6 -7 -9 -25 -7 -40 2 -20 11 -30 33 -37 40 -13 41 -14 20 -37 -14
-15 -17 -31 -13 -75 3 -39 1 -59 -9 -66 -29 -25 -4 -121 35 -133 11 -4 24 -23
30 -44 6 -21 25 -51 42 -67 30 -29 36 -56 24 -102 -5 -19 -13 -23 -44 -23 -36
0 -43 5 -99 75 -33 41 -80 108 -103 148 -41 69 -43 75 -42 152 0 51 12 135 34
235 l34 155 59 63 60 62 -21 23 c-19 21 -20 25 -7 43 12 18 12 24 0 41 -20 29
-115 51 -153 36z m18 -23 c0 -16 -23 -60 -32 -60 -11 0 -10 13 2 44 9 25 30
36 30 16z m44 -7 c-7 -26 -41 -69 -49 -61 -10 10 23 78 39 78 9 0 12 -7 10
-17z m34 -24 c-10 -29 -33 -48 -44 -36 -9 9 26 67 41 67 11 0 12 -6 3 -31z
m49 4 c4 -10 -2 -23 -16 -35 -31 -25 -44 -13 -26 23 17 33 32 37 42 12z m-92
-76 c-1 -12 -9 -37 -19 -54 -9 -18 -12 -33 -6 -33 5 0 10 5 10 12 0 22 33 48
63 48 17 0 27 3 23 8 -8 7 -13 8 -42 11 -29 2 -3 21 30 21 69 0 63 -36 -18
-99 -53 -42 -82 -41 -101 5 -14 35 -20 95 -10 105 2 3 19 3 37 1 27 -3 33 -8
33 -25z m329 -12 c8 -8 18 -24 21 -35 7 -23 12 -24 45 -5 34 20 64 18 91 -4
22 -18 23 -22 13 -61 -12 -41 -11 -41 12 -36 50 13 93 -34 72 -78 -6 -14 -15
-26 -20 -26 -19 0 -6 -18 17 -24 43 -11 26 -65 -25 -81 -15 -5 -33 5 -71 39
-30 27 -61 46 -74 46 -13 0 -27 5 -30 10 -3 6 -40 10 -82 10 l-76 0 -41 -45
c-23 -25 -49 -45 -58 -45 -55 0 -65 40 -17 69 l32 19 -28 4 c-40 4 -50 39 -23
74 25 31 80 57 102 48 26 -10 18 12 -9 24 -43 20 -25 64 38 93 51 23 90 24
111 4z m50 -267 c12 -7 28 -12 37 -13 42 -4 129 -107 129 -153 0 -13 -4 -20
-10 -17 -6 3 -14 -3 -18 -15 -8 -21 -9 -20 -36 14 -15 20 -25 40 -22 45 3 5
-8 11 -24 14 -16 4 -39 16 -50 27 -16 16 -24 18 -41 10 -25 -14 -59 -4 -81 24
-17 21 -18 21 -18 -12 0 -40 -32 -85 -78 -112 -22 -13 -32 -26 -28 -35 3 -8 2
-15 -3 -15 -10 0 -21 35 -21 67 0 25 36 99 54 111 6 4 16 16 22 27 6 11 20 25
31 30 28 14 132 16 157 3z m41 -134 c13 -3 27 -14 30 -24 3 -11 19 -33 35 -50
20 -21 28 -39 25 -53 -2 -12 -7 -48 -9 -80 -11 -123 -51 -194 -122 -217 -47
-16 -72 -8 -134 41 -59 47 -80 88 -80 158 l0 50 25 -24 c39 -40 77 -31 104 26
22 45 39 47 56 7 7 -19 21 -40 29 -47 24 -20 63 -5 82 30 21 42 11 77 -27 93
l-30 13 23 15 c13 9 20 19 17 23 -4 3 -18 -5 -32 -19 -15 -14 -34 -26 -44 -26
-15 0 -15 -2 -4 -9 24 -16 -5 -42 -38 -35 -36 9 -55 25 -41 34 7 4 -1 12 -19
20 -17 7 -31 19 -31 27 0 8 -5 11 -11 8 -7 -5 -4 -14 7 -26 16 -18 16 -19 -4
-19 -11 0 -29 -11 -40 -25 -11 -14 -23 -25 -26 -25 -13 0 -5 50 10 62 28 23
48 44 73 75 21 27 29 30 61 26 23 -3 40 -1 45 7 5 8 13 6 26 -9 11 -11 31 -24
44 -27z m-145 -125 c15 -27 5 -66 -21 -79 -27 -15 -69 11 -69 43 0 18 -2 19
-10 7 -5 -8 -10 -11 -10 -7 0 5 8 19 18 32 23 32 76 34 92 4z m182 -4 c9 -19
7 -29 -6 -50 -23 -35 -43 -41 -67 -19 -15 14 -19 26 -15 48 11 52 68 65 88 21z
m-310 -65 c3 -51 1 -55 -18 -42 -30 20 -43 79 -22 100 19 19 36 -5 40 -58z
m422 44 c7 -17 -15 -64 -38 -83 -14 -12 -16 -9 -16 23 0 62 37 103 54 60z
m-202 -287 c49 13 52 12 44 -15 -8 -25 -56 -32 -117 -17 -37 9 -45 15 -47 37
l-3 27 40 -22 c35 -19 44 -20 83 -10z m202 -578 l25 -87 -39 -88 c-22 -49 -45
-110 -52 -136 -6 -27 -14 -48 -17 -48 -12 0 -72 123 -73 148 0 15 17 63 39
107 22 44 51 108 64 143 13 34 25 59 26 55 2 -5 14 -47 27 -94z m-511 -286
c18 -9 59 -24 92 -33 l60 -17 7 -89 c10 -122 33 -289 74 -548 19 -120 33 -220
31 -223 -9 -9 -391 -3 -401 7 -31 31 -30 457 2 617 15 76 90 303 100 303 2 0
17 -8 35 -17z m393 -66 c34 -66 26 -100 -31 -136 l-44 -26 6 -75 c3 -41 9 -79
14 -84 10 -12 108 -46 131 -46 16 0 26 24 40 95 3 15 8 10 18 -20 8 -26 14
-117 17 -267 l5 -227 -32 -16 c-30 -15 -169 -49 -175 -43 -4 4 -63 293 -69
334 -2 16 -11 76 -19 134 -31 207 -50 379 -44 394 4 9 14 16 24 17 10 0 41 8
68 18 56 18 53 20 91 -52z m-185 -167 c18 -137 79 -500 94 -568 19 -80 19
-112 1 -112 -19 0 -20 5 -55 215 -47 284 -54 349 -65 560 -6 108 0 86 25 -95z
m284 -49 c3 -16 3 -47 0 -68 -12 -69 -15 -75 -38 -70 -29 7 -89 30 -104 40
-15 10 -17 53 -3 62 9 5 40 69 40 81 0 2 -5 4 -10 4 -6 0 -15 -11 -20 -25 -11
-30 -16 -31 -23 -5 -4 15 4 26 36 44 l41 25 37 -30 c21 -17 40 -42 44 -58z
m50 -1438 c8 -20 14 -37 13 -38 -2 -1 -18 -10 -35 -19 -18 -9 -33 -21 -33 -26
0 -6 -4 -10 -10 -10 -5 0 -10 23 -10 50 0 36 4 50 14 50 7 0 19 7 26 15 17 20
18 20 35 -22z m-400 -14 c-2 -11 5 -44 17 -75 11 -30 19 -56 17 -57 -2 -2 -33
-25 -69 -52 -36 -27 -83 -64 -104 -82 -46 -39 -80 -42 -137 -13 -43 23 -58 45
-41 62 9 9 17 7 31 -6 53 -48 182 46 230 169 14 33 29 66 34 72 13 18 27 7 22
-18z m-75 -24 c21 7 21 6 5 -32 -9 -21 -19 -44 -22 -51 -3 -7 -12 -11 -20 -8
-8 3 -25 6 -38 6 l-23 0 26 49 c20 36 30 47 39 39 7 -5 21 -7 33 -3z m552 -60
c21 -20 55 -43 74 -52 39 -19 39 -32 1 -51 -39 -19 -94 -1 -151 49 -48 42 -54
57 -34 77 23 23 69 14 110 -23z m-597 -54 c0 -8 -19 -30 -43 -48 -51 -39 -122
-48 -122 -15 0 16 19 32 84 70 28 16 81 12 81 -7z"/>
<path d="M2841 6263 c-10 -21 -9 -28 1 -34 21 -14 31 -10 18 6 -10 12 -10 19
-2 27 14 14 16 28 4 28 -5 0 -14 -12 -21 -27z"/>
<path d="M2805 6162 c-6 -6 7 -36 23 -54 31 -36 94 -14 104 35 3 17 -5 19 -60
20 -35 1 -65 0 -67 -1z m86 -21 c-8 -5 -20 -7 -28 -4 -21 8 -15 13 15 13 20 0
23 -3 13 -9z m23 -16 c-9 -23 -53 -30 -72 -12 -14 15 -13 16 20 11 21 -4 38
-2 42 5 10 16 16 13 10 -4z"/>
<path d="M2770 6300 c0 -11 4 -20 8 -20 4 0 8 9 8 20 0 11 -4 20 -8 20 -4 0
-8 -9 -8 -20z"/>
<path d="M3750 6542 c0 -10 70 -45 77 -39 4 4 -63 47 -73 47 -2 0 -4 -4 -4 -8z"/>
<path d="M3560 6512 c0 -7 -9 -12 -21 -12 -12 0 -34 -14 -50 -32 -24 -25 -29
-39 -27 -67 2 -30 9 -39 36 -51 33 -16 33 -16 13 -35 -12 -10 -21 -26 -21 -36
0 -24 38 -45 53 -30 8 8 5 11 -10 11 -32 0 -38 19 -15 50 13 17 19 36 15 49
-8 31 4 65 33 101 25 29 26 33 10 48 -10 10 -16 12 -16 4z m-20 -69 c-17 -26
-30 -55 -30 -65 0 -22 -13 -23 -30 -3 -26 31 24 115 69 115 19 0 19 -3 -9 -47z"/>
<path d="M3730 6491 c0 -5 9 -7 20 -4 13 4 26 -1 34 -13 12 -16 16 -16 31 -4
16 13 16 15 -2 21 -26 11 -83 11 -83 0z"/>
<path d="M3826 6435 c-9 -13 -16 -27 -16 -30 0 -3 23 -5 50 -5 56 0 61 7 27
38 -30 28 -41 28 -61 -3z m60 -10 c18 -13 17 -14 -18 -15 -29 0 -36 3 -32 15
8 19 25 19 50 0z"/>
<path d="M3814 6382 c-53 -36 17 -93 77 -62 27 15 25 56 -3 64 -31 8 -61 7
-74 -2z m61 -22 c-3 -5 -15 -10 -25 -10 -10 0 -22 5 -25 10 -4 6 7 10 25 10
18 0 29 -4 25 -10z m13 -27 c-11 -14 -37 -17 -62 -7 -29 11 -17 19 28 19 35 0
42 -2 34 -12z"/>
<path d="M3500 6220 c-6 -11 -10 -33 -8 -48 2 -23 8 -27 33 -27 17 0 34 -6 38
-12 10 -16 57 -17 57 -2 0 6 -7 8 -16 5 -11 -4 -18 1 -21 15 -4 14 -11 18 -22
13 -54 -22 -74 -6 -52 43 14 32 7 43 -9 13z"/>
<path d="M1180 2263 c-1 -5 0 -81 0 -170 1 -202 -1 -213 -46 -213 -32 0 -34 2
-34 35 0 34 -1 35 -40 35 -40 0 -40 0 -40 -40 0 -85 45 -118 144 -106 85 9 86
13 86 257 l0 209 -35 0 c-19 0 -35 -3 -35 -7z"/>
<path d="M1387 2264 c-12 -12 -8 -390 4 -418 15 -33 67 -50 132 -43 85 8 87
13 87 258 l0 209 -35 0 -35 0 -2 -192 -3 -193 -35 0 -35 0 -5 190 -5 190 -30
3 c-17 2 -34 0 -38 -4z"/>
<path d="M1734 2257 c-2 -7 -3 -111 -2 -232 l3 -220 37 -3 37 -3 3 128 3 128
45 -125 45 -125 38 -3 37 -3 0 235 0 236 -40 0 -40 0 -1 -132 0 -133 -44 122
c-23 67 -46 127 -50 132 -9 15 -65 14 -71 -2z"/>
<path d="M2090 2230 l0 -40 40 0 40 0 0 -195 0 -195 35 0 35 0 0 195 0 195 40
0 40 0 0 40 0 40 -115 0 -115 0 0 -40z"/>
<path d="M2525 2258 c-7 -20 -95 -431 -95 -445 0 -17 69 -17 75 0 2 6 6 29 10
50 l6 38 52 -3 51 -3 11 -45 c10 -42 13 -45 48 -48 20 -2 37 -1 37 3 0 8 -90
425 -96 448 -4 13 -16 17 -50 17 -27 0 -46 -5 -49 -12z m69 -199 c9 -47 16
-89 16 -92 0 -4 -16 -7 -35 -7 -40 0 -42 6 -25 92 18 90 21 100 24 97 2 -2 11
-43 20 -90z"/>
<path d="M2878 2259 c-16 -6 -31 -23 -37 -41 -15 -44 -14 -173 2 -185 6 -6 43
-20 80 -33 l68 -22 -3 -46 c-3 -46 -3 -47 -38 -47 -32 0 -35 3 -40 35 -5 32
-8 35 -40 35 -31 0 -35 -3 -38 -30 -2 -16 1 -46 7 -67 14 -44 57 -63 132 -56
79 8 89 24 89 139 l0 97 -72 25 -73 24 0 49 0 49 35 0 c32 0 35 -3 40 -35 4
-31 9 -35 38 -38 l32 -3 0 59 c0 76 -18 95 -98 99 -31 1 -69 -2 -84 -8z"/>
<path d="M3394 2257 c-2 -7 -3 -111 -2 -232 l3 -220 113 -3 112 -3 0 41 0 40
-75 0 -75 0 0 60 0 60 60 0 60 0 0 35 0 35 -60 0 -60 0 0 60 0 60 75 0 75 0 0
40 0 40 -110 0 c-80 0 -112 -3 -116 -13z"/>
<path d="M3750 2265 c0 -3 0 -99 0 -215 0 -115 0 -219 0 -230 0 -16 7 -20 35
-20 l35 0 0 125 c0 69 3 125 8 125 4 0 17 -31 29 -68 11 -37 31 -93 43 -124
20 -55 23 -58 56 -58 l34 0 0 236 0 235 -36 -3 -36 -3 0 -122 c0 -68 -4 -123
-7 -123 -3 0 -26 56 -50 125 l-43 125 -34 0 c-19 0 -34 -2 -34 -5z"/>
<path d="M4330 2035 l0 -235 110 0 110 0 0 40 0 40 -75 0 -75 0 0 195 0 195
-35 0 -35 0 0 -235z"/>
<path d="M4767 2248 c-3 -13 -24 -108 -47 -213 -22 -104 -43 -200 -45 -213 -5
-21 -3 -23 32 -20 35 3 38 6 48 48 l11 45 51 3 c51 3 51 3 58 -30 13 -66 15
-68 51 -68 23 0 34 5 34 14 0 19 -90 438 -96 448 -3 5 -25 8 -49 8 -36 0 -44
-3 -48 -22z m71 -179 c19 -105 18 -109 -24 -109 -35 0 -36 1 -30 30 3 17 11
60 18 95 6 36 15 62 18 58 4 -5 12 -38 18 -74z"/>
<path d="M5290 2036 l0 -236 110 0 110 0 0 40 0 40 -75 0 -74 0 0 193 0 192
-35 3 -36 3 0 -235z"/>
<path d="M5640 2061 c0 -245 2 -250 87 -258 67 -7 118 10 132 45 8 18 11 94 9
222 l-3 195 -35 0 -35 0 -3 -192 -2 -193 -35 0 -35 0 0 179 c0 99 -3 186 -6
195 -4 10 -18 16 -40 16 l-34 0 0 -209z"/>
<path d="M6033 2260 c-38 -16 -43 -41 -43 -227 0 -207 3 -218 75 -229 58 -8
111 2 136 27 14 14 19 33 19 74 l0 55 -35 0 c-30 0 -35 -3 -35 -24 0 -44 -10
-56 -46 -56 l-34 0 0 155 0 155 34 0 c36 0 46 -12 46 -56 0 -22 4 -25 33 -22
29 3 32 6 35 42 5 62 -5 86 -43 102 -38 15 -108 18 -142 4z"/>
<path d="M6340 2035 l0 -236 38 3 37 3 3 98 3 97 34 0 34 0 3 -97 3 -98 38 -3
37 -3 0 236 0 236 -37 -3 -38 -3 -3 -97 -3 -98 -34 0 -34 0 -3 98 -3 97 -37 3
-38 3 0 -236z"/>
<path d="M6790 2262 c0 -4 -22 -108 -48 -230 -27 -122 -47 -224 -44 -227 3 -3
20 -5 38 -5 30 0 34 3 39 38 11 62 11 62 65 62 54 0 54 0 65 -62 5 -35 8 -38
40 -38 19 0 36 3 38 8 5 9 -87 434 -97 450 -8 13 -96 17 -96 4z m69 -189 c7
-43 15 -86 17 -95 5 -15 -1 -18 -36 -18 -35 0 -41 3 -36 18 2 9 10 52 17 95 7
42 16 77 19 77 3 0 12 -35 19 -77z"/>
<path d="M2000 1245 c0 -30 5 -55 10 -55 6 0 10 11 10 25 0 18 5 25 19 25 24
0 43 23 35 44 -4 10 -18 16 -40 16 l-34 0 0 -55z m55 25 c0 -8 -8 -16 -17 -18
-13 -2 -18 3 -18 18 0 15 5 20 18 18 9 -2 17 -10 17 -18z"/>
<path d="M2157 1293 c-12 -11 -8 -78 5 -91 18 -18 46 -14 58 7 14 26 13 64 -2
79 -13 13 -50 16 -61 5z m51 -46 c3 -32 0 -37 -18 -37 -25 0 -34 21 -26 56 10
40 40 27 44 -19z"/>
<path d="M2300 1245 c0 -30 5 -55 10 -55 6 0 10 12 10 28 l0 27 25 -30 c23
-29 35 -26 15 5 -6 10 -4 20 6 31 23 25 7 49 -32 49 l-34 0 0 -55z m55 25 c0
-8 -8 -16 -17 -18 -13 -2 -18 3 -18 18 0 15 5 20 18 18 9 -2 17 -10 17 -18z"/>
<path d="M2600 1245 l0 -55 35 0 c19 0 35 5 35 10 0 6 -11 10 -25 10 -23 0
-25 4 -25 45 0 25 -4 45 -10 45 -5 0 -10 -25 -10 -55z"/>
<path d="M2769 1273 c-6 -16 -13 -41 -15 -58 -4 -25 -3 -27 6 -12 14 22 46 22
54 1 4 -9 9 -14 12 -11 9 8 -26 107 -37 107 -5 0 -14 -12 -20 -27z m31 -23 c0
-11 -4 -20 -10 -20 -5 0 -10 9 -10 20 0 11 5 20 10 20 6 0 10 -9 10 -20z"/>
<path d="M2906 1291 c-10 -15 4 -38 30 -49 29 -14 32 -32 4 -32 -11 0 -20 5
-20 10 0 6 -4 10 -10 10 -5 0 -10 -9 -10 -19 0 -15 7 -19 32 -18 45 3 50 33
12 64 -31 24 -25 45 6 25 17 -10 20 -10 20 3 0 17 -55 22 -64 6z"/>
<path d="M3202 1248 c3 -52 4 -53 36 -56 18 -2 32 1 32 7 0 6 -11 11 -25 11
-16 0 -25 6 -25 15 0 8 9 15 20 15 11 0 20 5 20 10 0 6 -9 10 -20 10 -30 0
-24 28 8 33 21 3 19 4 -11 6 l-38 1 3 -52z"/>
<path d="M3350 1251 c0 -28 5 -53 10 -56 6 -4 10 7 10 27 0 25 3 29 10 18 9
-13 11 -13 19 -1 7 11 11 6 14 -20 2 -23 4 -16 5 24 2 58 -10 75 -23 35 l-8
-23 -4 23 c-2 12 -11 22 -19 22 -10 0 -14 -13 -14 -49z"/>
<path d="M3510 1244 c0 -32 3 -54 7 -50 4 4 8 15 8 24 0 9 11 19 25 22 18 4
25 13 25 30 0 21 -6 26 -32 28 l-33 3 0 -57z m58 29 c5 -17 -26 -29 -40 -15
-6 6 -7 15 -3 22 9 14 37 9 43 -7z"/>
<path d="M3660 1244 c0 -34 4 -53 10 -49 6 3 10 16 10 28 1 21 2 20 18 -5 9
-16 20 -28 24 -28 11 0 10 14 -3 27 -8 8 -7 16 2 30 18 30 5 53 -31 53 -30 0
-30 0 -30 -56z m55 26 c0 -8 -8 -16 -17 -18 -13 -2 -18 3 -18 18 0 15 5 20 18
18 9 -2 17 -10 17 -18z"/>
<path d="M3810 1245 l0 -55 35 0 c19 0 35 5 35 10 0 6 -11 10 -25 10 -32 0
-34 27 -2 33 l22 4 -22 8 c-32 10 -29 33 5 38 22 3 20 4 -10 6 l-38 1 0 -55z"/>
<path d="M3960 1245 c0 -34 4 -55 11 -55 7 0 10 14 7 35 -2 19 -1 35 2 35 3 0
12 -16 19 -35 18 -51 31 -43 31 20 0 34 -4 55 -11 55 -7 0 -9 -11 -5 -30 3
-16 2 -30 -2 -30 -4 0 -13 14 -19 30 -18 48 -33 36 -33 -25z"/>
<path d="M4110 1244 c0 -54 0 -55 27 -52 65 7 68 108 3 108 -30 0 -30 0 -30
-56z m55 6 c0 -25 -5 -36 -17 -38 -15 -3 -18 4 -18 38 0 34 3 41 18 38 12 -2
17 -13 17 -38z"/>
<path d="M4260 1274 c-13 -33 7 -79 35 -79 30 0 52 47 37 79 -16 36 -59 36
-72 0z m55 -24 c0 -28 -4 -35 -20 -35 -13 0 -21 8 -23 23 -5 34 5 54 25 50 13
-2 18 -13 18 -38z"/>
<path d="M4410 1245 c0 -30 5 -55 10 -55 6 0 10 12 10 28 l0 27 25 -30 c13
-16 24 -25 25 -19 0 5 -5 15 -11 21 -8 8 -7 16 2 30 18 30 5 53 -31 53 -30 0
-30 0 -30 -55z m55 25 c0 -8 -8 -16 -17 -18 -13 -2 -18 3 -18 18 0 15 5 20 18
18 9 -2 17 -10 17 -18z"/>
<path d="M4585 1290 c-13 -20 -33 -100 -25 -100 4 0 10 7 14 15 3 8 15 15 26
15 11 0 20 -7 20 -15 0 -8 5 -15 11 -15 6 0 9 6 6 14 -3 8 -11 33 -17 55 -11
40 -23 51 -35 31z m25 -46 c0 -8 -7 -14 -15 -14 -17 0 -18 2 -9 24 7 18 24 12
24 -10z"/>
<path d="M4717 1293 c-15 -14 -6 -33 23 -48 17 -9 30 -20 30 -25 0 -14 -34
-12 -48 2 -9 9 -12 8 -12 -8 0 -16 7 -20 33 -19 27 0 32 4 32 25 0 16 -8 28
-22 35 -26 11 -31 35 -8 35 8 0 15 -4 15 -10 0 -5 5 -10 10 -10 6 0 10 7 10
15 0 15 -50 22 -63 8z"/>
<path d="M5160 1245 c0 -30 5 -55 10 -55 6 0 10 11 10 25 0 17 5 25 18 25 25
0 41 18 35 41 -4 14 -14 19 -39 19 l-34 0 0 -55z m55 25 c0 -8 -8 -16 -17 -18
-13 -2 -18 3 -18 18 0 15 5 20 18 18 9 -2 17 -10 17 -18z"/>
<path d="M5322 1288 c-26 -26 -7 -98 27 -98 28 0 43 25 39 67 -3 32 -7 38 -28
41 -14 2 -31 -3 -38 -10z m54 -23 c8 -34 -1 -55 -26 -55 -16 0 -20 6 -20 33 0
19 3 37 7 40 14 15 33 6 39 -18z"/>
<path d="M5471 1243 c1 -32 4 -46 6 -30 5 34 16 35 31 2 6 -14 17 -25 23 -25
7 0 6 9 -4 24 -15 22 -15 25 -1 30 9 4 14 15 12 28 -2 18 -11 24 -35 26 l-33
3 1 -58z m47 30 c-5 -26 -38 -29 -38 -4 0 15 6 21 21 21 14 0 19 -5 17 -17z"/>
<path d="M5772 1248 l-2 -58 35 0 c19 0 35 5 35 10 0 6 -13 10 -29 10 -28 0
-30 2 -34 48 -3 46 -3 46 -5 -10z"/>
<path d="M5930 1259 c-6 -22 -14 -47 -17 -55 -3 -8 0 -14 6 -14 6 0 11 7 11
15 0 8 9 15 20 15 11 0 23 -7 26 -15 4 -8 10 -15 14 -15 4 0 0 25 -9 55 -9 30
-21 55 -28 55 -7 0 -17 -18 -23 -41z m40 -21 c0 -5 -7 -8 -15 -8 -15 0 -20 21
-8 33 7 7 23 -11 23 -25z"/>
<path d="M6074 1285 c-7 -18 12 -45 32 -45 8 0 14 -7 14 -15 0 -18 -36 -20
-43 -2 -3 6 -6 3 -6 -9 -1 -16 5 -21 25 -20 36 1 56 34 31 50 -52 32 -53 34
-33 42 12 5 21 3 24 -4 5 -17 22 -15 22 3 0 20 -59 20 -66 0z"/>
<path d="M4887 1197 c-11 -29 -9 -43 4 -30 6 6 9 19 7 29 -3 18 -4 18 -11 1z"/>
<path d="M4126 1058 c-25 -14 -19 -36 15 -53 25 -13 28 -19 18 -31 -10 -13
-14 -12 -30 2 -18 16 -19 16 -19 -2 0 -16 7 -20 33 -19 25 0 33 5 35 22 2 16
-4 26 -22 35 -28 12 -35 38 -11 38 8 0 15 -4 15 -10 0 -5 5 -10 10 -10 6 0 10
6 10 14 0 18 -32 26 -54 14z"/>
<path d="M1400 1005 l0 -55 36 0 c21 0 33 4 29 10 -3 6 -17 10 -31 10 -15 0
-24 6 -24 15 0 8 9 15 20 15 11 0 20 5 20 10 0 6 -9 10 -20 10 -34 0 -23 28
13 33 31 4 31 4 -5 5 l-38 2 0 -55z"/>
<path d="M1550 1037 c0 -16 9 -28 25 -35 26 -12 32 -26 16 -37 -5 -3 -17 2
-25 11 -14 14 -21 7 -13 -13 4 -13 39 -14 53 -2 22 18 16 37 -17 55 -23 11
-28 19 -20 27 8 8 14 8 23 -1 16 -16 28 -15 28 3 0 10 -11 15 -35 15 -30 0
-35 -3 -35 -23z"/>
<path d="M1701 1038 c1 -17 2 -19 6 -5 8 32 23 17 23 -23 0 -22 -4 -40 -10
-40 -5 0 -10 -4 -10 -10 0 -5 11 -10 25 -10 14 0 25 5 25 10 0 6 -3 10 -7 10
-10 0 -10 67 0 76 4 4 7 0 7 -10 0 -9 5 -14 10 -11 6 3 10 13 10 21 0 10 -12
14 -40 14 -35 0 -40 -3 -39 -22z"/>
<path d="M1852 1014 c3 -50 22 -72 52 -61 12 5 16 18 14 59 -1 47 -2 49 -5 13
-8 -76 -43 -84 -43 -9 0 24 -5 44 -11 44 -6 0 -9 -19 -7 -46z"/>
<path d="M2000 1005 c0 -52 2 -55 24 -55 32 0 56 25 56 59 0 35 -17 51 -52 51
-27 0 -28 -1 -28 -55z m58 2 c3 -32 0 -37 -17 -37 -18 0 -21 6 -21 41 0 33 3
40 18 37 12 -2 18 -14 20 -41z"/>
<path d="M2168 1053 c15 -6 16 -75 0 -91 -9 -9 -7 -12 13 -12 23 0 24 3 24 55
0 52 -1 55 -25 54 -14 0 -19 -3 -12 -6z"/>
<path d="M2319 1033 c-6 -16 -13 -41 -15 -58 -4 -25 -3 -27 6 -12 13 21 50 23
50 2 0 -8 5 -15 10 -15 13 0 13 -3 -5 58 -18 58 -30 65 -46 25z m31 -23 c0
-11 -4 -20 -10 -20 -5 0 -10 9 -10 20 0 11 5 20 10 20 6 0 10 -9 10 -20z"/>
<path d="M2450 1005 c0 -61 19 -77 21 -17 l1 37 15 -37 c22 -54 33 -47 32 20
-2 53 -2 54 -8 17 l-6 -40 -14 38 c-20 57 -41 48 -41 -18z"/>
<path d="M2601 1038 c1 -17 2 -19 6 -5 2 9 9 17 14 17 13 0 11 -74 -3 -88 -9
-9 -6 -12 14 -12 24 0 25 2 20 53 -4 49 -3 51 12 32 15 -20 15 -20 16 3 0 19
-5 22 -40 22 -35 0 -40 -3 -39 -22z"/>
<path d="M2750 1005 l0 -55 35 0 c19 0 35 5 35 10 0 6 -11 10 -25 10 -16 0
-25 6 -25 15 0 8 9 15 20 15 11 0 20 5 20 10 0 6 -9 10 -20 10 -30 0 -24 28 8
33 22 3 20 4 -10 6 l-38 1 0 -55z"/>
<path d="M2906 1051 c-10 -15 4 -38 30 -49 13 -7 24 -15 24 -20 0 -19 -15 -21
-37 -7 -21 14 -23 14 -23 -4 0 -15 6 -19 32 -18 45 3 50 33 12 64 -31 24 -25
45 6 25 17 -10 20 -10 20 3 0 17 -55 22 -64 6z"/>
<path d="M3350 1005 c0 -30 5 -55 10 -55 6 0 10 11 10 25 0 20 5 25 24 25 26
0 39 20 30 45 -4 9 -19 15 -40 15 l-34 0 0 -55z m55 25 c0 -8 -8 -16 -17 -18
-13 -2 -18 3 -18 18 0 15 5 20 18 18 9 -2 17 -10 17 -18z"/>
<path d="M3509 1033 c-13 -35 7 -78 36 -78 30 0 52 47 37 79 -16 37 -59 36
-73 -1z m59 -16 c4 -36 -15 -62 -34 -46 -15 12 -19 61 -7 73 15 15 38 0 41
-27z"/>
<path d="M3660 1004 c0 -36 4 -53 11 -49 6 4 8 13 5 21 -9 25 11 24 24 -1 7
-14 17 -25 22 -25 11 0 10 14 -3 27 -8 8 -7 16 2 30 18 30 5 53 -31 53 -30 0
-30 0 -30 -56z m55 26 c0 -8 -8 -16 -17 -18 -13 -2 -18 3 -18 18 0 15 5 20 18
18 9 -2 17 -10 17 -18z"/>
<path d="M3960 1016 c0 -86 62 -89 68 -2 2 25 -1 46 -5 46 -4 0 -8 -15 -7 -32
0 -39 -13 -71 -27 -63 -5 4 -9 26 -9 51 0 24 -4 44 -10 44 -5 0 -10 -20 -10
-44z"/>
<path d="M4261 1038 c1 -17 2 -19 6 -5 8 32 23 17 23 -23 0 -22 -4 -40 -10
-40 -5 0 -10 -4 -10 -10 0 -5 11 -10 25 -10 14 0 25 5 25 10 0 6 -4 10 -10 10
-5 0 -10 18 -10 40 0 22 5 40 10 40 6 0 10 -7 10 -16 0 -8 5 -12 10 -9 6 3 10
13 10 21 0 10 -12 14 -40 14 -35 0 -40 -3 -39 -22z"/>
<path d="M4410 1005 l0 -55 35 0 c19 0 35 5 35 10 0 6 -11 10 -25 10 -16 0
-25 6 -25 15 0 8 9 15 20 15 11 0 20 5 20 10 0 6 -9 10 -20 10 -30 0 -24 28 8
33 22 3 20 4 -10 6 l-38 1 0 -55z"/>
<path d="M4560 1005 c0 -51 2 -55 23 -55 27 0 57 28 57 54 0 34 -20 56 -50 56
-30 0 -30 -1 -30 -55z m55 5 c0 -25 -5 -36 -17 -38 -15 -3 -18 4 -18 38 0 34
3 41 18 38 12 -2 17 -13 17 -38z"/>
<path d="M4710 1005 l0 -55 35 0 c19 0 35 5 35 10 0 6 -11 10 -25 10 -16 0
-25 6 -25 15 0 8 9 15 20 15 11 0 20 5 20 10 0 6 -9 10 -20 10 -30 0 -24 28 8
33 22 3 20 4 -10 6 l-38 1 0 -55z"/>
<path d="M4863 1043 c-4 -10 0 -21 11 -27 46 -28 52 -35 36 -45 -10 -7 -20 -5
-32 6 -17 15 -18 15 -18 -4 0 -16 6 -20 33 -19 25 1 33 6 35 23 2 16 -4 26
-22 35 -28 12 -35 38 -11 38 8 0 15 -4 15 -10 0 -5 5 -10 10 -10 6 0 10 7 10
15 0 22 -59 20 -67 -2z"/>
<path d="M5175 1030 c17 -33 20 -60 5 -60 -5 0 -10 -4 -10 -10 0 -5 11 -10 25
-10 26 0 34 15 13 23 -10 3 -7 15 9 46 15 29 18 41 8 41 -7 0 -15 -10 -19 -22
-5 -19 -8 -20 -15 -8 -5 8 -7 18 -5 22 3 4 -2 8 -11 8 -14 0 -14 -3 0 -30z"/>
<path d="M5471 1003 c2 -55 2 -56 9 -18 l6 40 17 -37 c24 -53 37 -47 37 17 0
58 -19 79 -21 23 l-1 -33 -14 33 c-21 49 -34 39 -33 -25z"/>
<path d="M5618 1035 c-15 -34 0 -79 28 -83 30 -4 46 21 42 65 -3 33 -7 38 -30
41 -22 3 -30 -2 -40 -23z m58 -10 c8 -34 -1 -55 -26 -55 -16 0 -20 6 -20 33 0
19 3 37 7 40 14 15 33 6 39 -18z"/>
<path d="M5772 1038 c2 -13 13 -27 26 -33 23 -10 29 -29 13 -40 -5 -3 -17 2
-25 11 -15 14 -16 14 -16 -4 0 -25 48 -24 64 2 9 14 7 20 -7 30 -52 32 -53 34
-33 42 12 5 21 3 24 -4 5 -17 22 -15 22 3 0 11 -11 15 -36 15 -31 0 -35 -3
-32 -22z"/>
<path d="M5918 1035 c-15 -34 0 -79 28 -83 30 -4 46 21 42 65 -3 33 -7 38 -30
41 -22 3 -30 -2 -40 -23z m56 -1 c15 -39 -3 -78 -30 -67 -14 5 -20 64 -7 76
11 12 31 7 37 -9z"/>
<path d="M6060 1046 c0 -8 5 -18 10 -21 6 -3 10 1 10 10 0 9 5 13 10 10 6 -3
10 -22 10 -41 0 -19 -4 -34 -10 -34 -5 0 -10 -4 -10 -10 0 -5 11 -10 25 -10
14 0 25 5 25 10 0 6 -4 10 -10 10 -5 0 -10 18 -10 40 0 40 15 55 23 23 4 -14
5 -12 6 5 1 19 -4 22 -39 22 -28 0 -40 -4 -40 -14z"/>
<path d="M6221 1003 c1 -32 3 -49 6 -38 8 33 19 37 33 10 7 -14 18 -25 23 -25
5 0 2 11 -6 24 -15 22 -15 25 -1 30 9 4 14 15 12 28 -2 18 -11 24 -35 26 l-33
3 1 -58z m53 39 c9 -14 -12 -35 -28 -29 -23 9 -20 37 3 37 11 0 22 -4 25 -8z"/>
<path d="M6381 1019 c-7 -23 -15 -47 -18 -55 -3 -8 0 -14 6 -14 6 0 11 7 11
15 0 8 9 15 20 15 11 0 23 -7 26 -15 4 -8 10 -15 14 -15 4 0 0 25 -9 55 -9 30
-21 55 -27 55 -6 0 -16 -18 -23 -41z m39 -21 c0 -5 -7 -8 -15 -8 -15 0 -20 21
-8 33 7 7 23 -11 23 -25z"/>
<path d="M6524 1045 c-7 -18 12 -45 32 -45 16 0 19 -26 5 -35 -5 -3 -17 2 -25
11 -15 14 -16 14 -16 -4 0 -18 21 -22 63 -14 20 5 4 43 -23 57 -17 9 -28 20
-25 25 8 13 35 13 35 0 0 -5 5 -10 10 -10 6 0 10 7 10 15 0 20 -59 20 -66 0z"/>
<path d="M3080 950 c-6 -12 -9 -24 -7 -27 3 -2 11 5 17 17 6 12 9 24 7 27 -3
2 -11 -5 -17 -17z"/>
<path d="M1518 283 c12 -2 32 -2 45 0 12 2 2 4 -23 4 -25 0 -35 -2 -22 -4z"/>
</g>
</svg>
